<?xml version="1.0" encoding="UTF-8"?>
<svg version="1.1" xmlns="http://www.w3.org/2000/svg" width="587" height="590">
<path d="M0 0 C0.80521088 -0.0025882 1.61042175 -0.00517639 2.44003296 -0.00784302 C26.28768817 -0.06891924 26.28768817 -0.06891924 35.5 3.125 C39.58805637 3.82222394 43.70177053 4.33005762 47.8125 4.875 C100.89063074 12.41875482 150.48420716 34.9513367 192.5 68.125 C193.85738281 69.19427734 193.85738281 69.19427734 195.2421875 70.28515625 C210.34997576 82.41846495 224.57081181 95.83279599 236.5 111.125 C237.28890625 112.10855469 238.0778125 113.09210938 238.890625 114.10546875 C278.78387051 164.27592156 300.0636988 230.90089776 299.8125 294.6875 C299.80976578 296.1342511 299.80976578 296.1342511 299.80697632 297.61022949 C299.75925266 312.64364919 299.17361685 327.29620799 296.5 342.125 C296.32839355 343.10162598 296.15678711 344.07825195 295.97998047 345.08447266 C288.78290882 384.98030413 274.27101362 423.86148033 252.5 458.125 C251.81421875 459.20523437 251.1284375 460.28546875 250.421875 461.3984375 C239.91043649 477.4966642 227.7196342 492.20526057 214.5 506.125 C213.32244141 507.36636719 213.32244141 507.36636719 212.12109375 508.6328125 C207.14668962 513.74069796 201.83593308 518.28894868 196.24975586 522.71411133 C194.85334551 523.84008529 193.47198901 524.98472078 192.09594727 526.13549805 C185.69545248 531.46629767 179.13024512 536.33772893 172.1875 540.9375 C171.15206055 541.62400635 170.11662109 542.3105127 169.04980469 543.01782227 C141.44778873 561.06997736 111.4685407 573.85595095 79.8125 582.9375 C78.90153564 583.20320801 77.99057129 583.46891602 77.05200195 583.74267578 C73.88317228 584.61757522 70.70126931 585.37620778 67.5 586.125 C66.81533307 586.28905319 66.13066614 586.45310637 65.42525172 586.62213087 C48.60447408 590.52876898 31.95223638 590.68224181 14.79374075 590.58926249 C10.72319888 590.57173433 6.65267662 590.5778518 2.58210754 590.58087158 C-4.44409222 590.58295318 -11.47014161 590.57057044 -18.49630356 590.54792023 C-28.65450673 590.51519486 -38.81263835 590.5049724 -48.97088851 590.49996826 C-65.45817245 590.49124753 -81.94537652 590.46472013 -98.43261719 590.42675781 C-114.43358973 590.38995381 -130.43454046 590.36168329 -146.43554688 590.34472656 C-147.42443649 590.34367567 -148.4133261 590.34262477 -149.43218206 590.34154204 C-154.39392369 590.33632129 -159.35566548 590.3312666 -164.31740737 590.32629442 C-205.37832708 590.28493288 -246.43915894 590.21457312 -287.5 590.125 C-286.54968351 588.84339127 -285.59735312 587.56327569 -284.64417934 586.28379059 C-283.84901178 585.21425384 -283.84901178 585.21425384 -283.03778023 584.12311029 C-281.17478674 581.70243509 -279.15294167 579.54457263 -276.98266602 577.39648438 C-276.14482071 576.56201782 -275.3069754 575.72755127 -274.44374084 574.86779785 C-273.55609543 573.99361206 -272.66845001 573.11942627 -271.75390625 572.21875 C-270.33357244 570.80636589 -268.91324132 569.39397907 -267.49306393 567.98143768 C-265.51938811 566.02080466 -263.54116687 564.06479043 -261.56286621 562.10882568 C-258.10347372 558.68757067 -254.64890388 555.26146368 -251.19798279 551.83166504 C-249.36653606 550.01234198 -247.53242345 548.19569723 -245.69520569 546.38220215 C-241.37594215 542.09648061 -237.24221723 537.74555582 -233.27915955 533.13024902 C-229.79967991 529.20860908 -226.03712453 525.56178685 -222.3125 521.875 C-221.45116455 521.01745117 -220.5898291 520.15990234 -219.70239258 519.27636719 C-216.04986017 515.64005061 -212.39136365 512.00975629 -208.73339844 508.37890625 C-206.04934844 505.71302403 -203.36836759 503.0440819 -200.6875 500.375 C-199.87063721 499.56643555 -199.05377441 498.75787109 -198.2121582 497.92480469 C-197.04559692 496.76319824 -197.04559692 496.76319824 -195.85546875 495.578125 C-194.84456177 494.57507324 -194.84456177 494.57507324 -193.81323242 493.55175781 C-188.7680843 488.25901139 -184.3367926 483.08544925 -180.6025753 476.78467178 C-172.70048954 463.9162381 -161.3865219 450.68825285 -146.31560993 446.52099419 C-132.9009538 443.59446962 -118.91751756 443.70228742 -105.25390625 443.7421875 C-104.25599548 443.74493714 -103.25808471 443.74768679 -102.22993422 443.75051975 C-89.71135879 443.81395087 -77.20777354 444.17955211 -64.69872129 444.65207028 C-47.73273133 445.2889365 -30.75791805 445.59146517 -13.78282303 445.87078583 C-7.85167994 445.97498639 -1.92779315 446.14829907 3.99969941 446.37953341 C30.95588301 447.71584065 30.95588301 447.71584065 55.4446888 437.49637222 C58.42234187 435.50958272 61.53430193 433.77596514 64.64519405 432.00811577 C77.12062109 424.76616107 88.81479497 415.95383759 99.3515625 406.1171875 C101.30447845 404.3063018 103.31694159 402.62594792 105.375 400.9375 C132.47230346 377.1049319 149.87551118 339.90490351 152.37109375 304.1171875 C154.00209635 266.25815747 145.47164935 227.91391301 119.5 199.125 C91.90305093 169.05722468 48.42879736 148.07776451 7.37859726 146.01858521 C4.97488921 145.96326771 2.57250363 145.93607514 0.16821289 145.91967773 C-0.75446412 145.90964501 -1.67714113 145.89961229 -2.62777805 145.88927555 C-5.594275 145.85806418 -8.56078539 145.83319147 -11.52734375 145.80859375 C-13.36690692 145.79017427 -15.20646596 145.77133675 -17.04602051 145.7520752 C-23.84313141 145.68382288 -30.64032145 145.62364523 -37.4375 145.5625 C-52.638125 145.418125 -67.83875 145.27375 -83.5 145.125 C-83.5 97.935 -83.5 50.745 -83.5 2.125 C-62.72581522 0.97087862 -62.72581522 0.97087862 -55.48828125 0.80859375 C-54.64230881 0.78772202 -53.79633636 0.76685028 -52.92472839 0.74534607 C-50.22072575 0.68044976 -47.51665292 0.62077709 -44.8125 0.5625 C-43.8745459 0.54165344 -42.9365918 0.52080688 -41.97021484 0.49932861 C-27.98043317 0.19357487 -13.99308681 0.02058132 0 0 Z " fill="#FFFFFF" transform="translate(287.5,-0.125)"/>
<path d="M0 0 C47.19 0 94.38 0 143 0 C143 115.17 143 230.34 143 349 C139.68948164 347.89649388 139.03880347 347.13476067 136.88671875 344.515625 C132.77188298 339.66957398 128.32857423 335.22019637 123.8125 330.75 C122.95116455 329.89245117 122.0898291 329.03490234 121.20239258 328.15136719 C118.4706888 325.43179111 115.73576725 322.715488 113 320 C109.39288149 316.41961974 105.78918198 312.83584819 102.1875 309.25 C101.37063721 308.44143555 100.55377441 307.63287109 99.7121582 306.79980469 C95.56658475 302.67183907 91.61828431 298.46183107 87.8034668 294.02832031 C84.31231267 290.10189436 80.54523227 286.44481222 76.8125 282.75 C75.95116455 281.89245117 75.0898291 281.03490234 74.20239258 280.15136719 C71.4706888 277.43179111 68.73576725 274.715488 66 272 C62.39288149 268.41961974 58.78918198 264.83584819 55.1875 261.25 C54.37063721 260.44143555 53.55377441 259.63287109 52.7121582 258.79980469 C51.54559692 257.63819824 51.54559692 257.63819824 50.35546875 256.453125 C49.68153076 255.78442383 49.00759277 255.11572266 48.31323242 254.42675781 C46 252 46 252 44.49199772 250.13946629 C40.82692967 245.66789517 37.31889053 242.71032923 32.32361412 239.82536888 C18.12911111 231.44176451 3.82246042 219.03368588 -0.66435528 202.5609026 C-6.99780186 173.09646179 -3.91833324 140.76547749 -2.80904448 110.88762033 C-2.28441517 96.50129277 -2.07963835 82.11019325 -1.85315609 67.71667004 C-1.48965922 45.13236315 -0.71222617 22.58223674 0 0 Z " fill="#0082ED" transform="translate(0,0)"/>
</svg>
